# xmcd CD database file
#
# Track frame offsets:
#	150
#	21868
#	43893
#	83426
#	104642
#	107546
#	125080
#	164633
#	187201
#	224197
#	238832
#
# Disc length: 3377 seconds
#
# Revision: 0
# Processed by: cddbd v1.5.2PL0 Copyright (c) Steve Scherf et al.
# Submitted via: CDex 1.70beta2
#
DISCID=a80d2f0b
DTITLE=Laura Winkler and Wabi-Sabi Orchestra - Paper Clips
DYEAR=2014
DGENRE=Jazz
TTITLE0=Dance III
TTITLE1=Mythomania
TTITLE2=Two Moons
TTITLE3=Dance I
TTITLE4=Dance interlude
TTITLE5=Dance ii
TTITLE6=Sandstorm
TTITLE7=Lunatic
TTITLE8=Walk The Street
TTITLE9=Insane
TTITLE10=Run
EXTD=YEAR: 2014
EXTT0=
EXTT1=
EXTT2=
EXTT3=
EXTT4=
EXTT5=
EXTT6=
EXTT7=
EXTT8=
EXTT9=
EXTT10=
PLAYORDER=
